<?xml version="1.0" encoding="utf-8"?>
<!-- Generator: Adobe Illustrator 23.1.1, SVG Export Plug-In . SVG Version: 6.00 Build 0)  -->
<svg version="1.1" id="Layer_1" xmlns="http://www.w3.org/2000/svg" xmlns:xlink="http://www.w3.org/1999/xlink" x="0px" y="0px"
	 viewBox="0 0 250 300" style="enable-background:new 0 0 250 300;" xml:space="preserve">
<style type="text/css">
	.st0{fill:#7C899B;}
	.st1{fill:none;stroke:#020202;stroke-width:3;stroke-linecap:round;stroke-linejoin:round;stroke-miterlimit:10;}
	.st2{fill:#7C899B;stroke:#020202;stroke-width:3;stroke-linecap:round;stroke-linejoin:round;stroke-miterlimit:10;}
	.st3{fill:none;stroke:#020202;stroke-width:2;stroke-miterlimit:10;}
	.st4{fill:#020202;}
	.st5{fill:#55677C;stroke:#020202;stroke-width:2;stroke-miterlimit:10;}
	.st6{fill:none;stroke:#020202;stroke-width:3;stroke-miterlimit:10;}
</style>
<g id="_x31_">
	<g>
		<g id="body_1_">
			<path class="st0" d="M206.4,101c10.1-17.8-3.5-35.8-57.4-51c0,0,12,2.1,10.1-6.4s-13.2-3.1-13.2-3.1s12.2-7,6.7-13.6
				s-30.3,19-38.1,26.8l-4.7,5.4c0,0-49.4,63.4-52.9,182.6c0,0-2.9-18.6-6-2.7c0,0-3.5-12.8-8.9-7c-5.4,5.8,5.8,19,5.8,19
				s-5.4-1.2-5.4,2.7c0,3.9,8.1,2.7,8.1,2.7s-7.4,4.3-1.2,11.6c0,0,5.5,5.9,10.2-6.1c-0.1,0.6-0.2,1.3-0.1,2.1l0.9-2.5l2-7L68,259
				l23,9l15,4l5-2l1-2l-2-4c-0.5-0.6,0.9-0.9,0.2-1.6c0,0,0.7,0.4,1.8,0.8V263c0,0,9,3,12,3c1.8,0,3.6-0.4,4.8-0.6
				c0.7-0.3,1.4-0.7,2-1.2c0,0-0.1,0.2-0.3,0.6l4.5-1.8l4,7h7l14-2l14.3-9.5c-0.9-1.7-1.6-2.8-1.6-2.8s21.5-1.6,28.3-38.2
				c5.8-31.2-13.4-62-11.1-79.9S197.2,117.2,206.4,101z"/>
			<path class="st1" d="M110.3,59c-8.9,12-30.5,45.1-42.3,98.6c0,0-12.8,54.3-10.8,84.5"/>
			<path class="st1" d="M172.7,255.9c0,0,26.7-5.2,29-44.7c2-34.3-14.4-52.3-11.6-75c0,0,2.3-14.5,9.9-25.3s14.8-22.1,3.5-34.6
				s-41.1-24-52.4-26.2"/>
		</g>
		<g id="tail_1_">
			<path class="st0" d="M57,243.1c0,0-1.8-20.9-6-3.7c0,0-3.1-11.9-7.8-8.3c-4.8,3.6-1.3,12.9,5.1,20.1c0,0-5.4-1.2-5.8,2.5
				c-0.4,3.7,7.7,2.8,7.7,2.8s-8.2,4.9-0.6,11.8c7.6,6.8,10.9-8.1,10.9-10.6C60.4,255.1,57,243.1,57,243.1z"/>
			<path class="st1" d="M57.2,242.1c0,0-2.7-19.4-6.2-2.7c0,0-2.3-9.7-7.2-8.5s-4.7,10.3,4.5,20.4c0,0-5.8-1.4-5.8,2.7
				s8.1,2.3,8.1,2.3s-7.8,4.1-1.7,11.6c0,0,8,8,11.6-8l1.7-4.1"/>
		</g>
		<g id="hairs_1_">
			<path class="st0" d="M118.9,65.3c0,0,11,9.2,14.6-3.4c0,0,15.8,9.2,10.5-12c0,0,16.9,2.3,15.2-6.4c-1.7-8.7-13.1-2.9-13.1-2.9
				s16.5-10.5,4.2-15c-8.1-3-40,33.5-40,33.5L118.9,65.3z"/>
			<path class="st1" d="M120.7,66.9c0,0,10.5,6.2,12.8-5c0,0,7,5.4,10.5,0s0-12,0-12s16.9,2.1,15.1-5.4s-8.1-5.2-13-3.9
				c0,0,11.8-7.2,6.8-13.4S124,43,114.3,53.9c0,0-1.5,1.7-4,5.1"/>
		</g>
		<path id="ear_1_" class="st2" d="M114.3,53.9c0,0-3.6-14.8-19.3-10.5s-8.2,15.9-8.2,15.9s5,9.2,12.2-2.1c4.4-7,10.6-0.5,11.3,1.8
			L114.3,53.9z"/>
		<path class="st3" d="M176.7,105.3c0,0,5.4,11.6,17.8,14.9"/>
		<path id="nose_1_" class="st4" d="M206.2,101.4c0,0-24-8.9-23.6-17.2s20.2-8.5,20.2-8.5s5.3,6.3,6,10
			C209.7,90.3,210.1,95.5,206.2,101.4z"/>
		<g id="glasses_1_">
			<path class="st4" d="M168.6,76c-1.6,2.6-4.9,3.4-7.4,1.9l0,0c-2.5-1.5-3.2-4.9-1.6-7.5l2.3-3.7c1.6-2.6,4.9-3.4,7.4-1.9l0,0
				c2.5,1.5,3.2,4.9,1.6,7.5L168.6,76z"/>
			<path class="st3" d="M173.7,57.7c0,0-2.5,2.5-3.9,7.6"/>
		</g>
		<g id="scarf_1_">
			<path class="st5" d="M87.9,98.8c0,0,17.8,4.5,38.8,12.7s45.9,25.6,63.4,24.7c0,0-0.5,10.8,1,16.8s3.5,12.8,3.5,12.8
				s-18.7-9.1-42-12.8s-68.3-23.6-73.7-31.7l3.5-10.2L87.9,98.8z"/>
			<path class="st5" d="M173.8,133.6c0,0-9.6,7.6-9.9,35.8s-0.9,28.2,4.9,29.4s25.2,8.6,25.7-11.3c0.5-19.9-1-25.7-3.5-34.4
				c-2.4-8.6-1.1-15.6-1.1-15.6L173.8,133.6z"/>
		</g>
		<g id="leg2_1_">
			<path class="st0" d="M87.2,215.9c0,0,27.9,17.2,21.6,33.9c0,0-7,7.4-14.7,1.2c0,0,19.1,11.8,19,19.5c0,7.7-22.1,0.8-31.3-2.8
				s-29.1-10.4-15.3-21.8C80.4,234.5,69.1,203.2,87.2,215.9z"/>
			<path class="st1" d="M63.8,249.1c0,0-5.7,5.6,3.1,11.8c8.7,6.1,35.1,13.4,39,13.7c3.9,0.3,11.7-0.6,3.9-10.8
				s-18.1-13.5-20.7-15.5c-2.7-2-8.4-5.1-10-10.8"/>
			<path class="st6" d="M89.2,218.1c0,0,17.3,9.1,20.2,24.2c2.9,15.2-13.3,9.9-13.3,9.9"/>
			<g>
				<path class="st0" d="M104.6,274.7c0,0,0.3-4.6-3.7-11.5"/>
				<path class="st4" d="M104.4,274.7c-0.8-1-1.3-1.8-1.6-2.7c-0.4-0.9-0.3-1.9-0.5-2.9c-0.1-0.5-0.2-1-0.3-1.4
					c-0.1-0.5-0.2-1-0.4-1.5s-0.3-1-0.4-1.5c-0.2-0.5-0.3-1-0.5-1.5l0.3-0.1c0.7,0.8,1.3,1.6,2,2.5c0.6,0.9,1.1,1.8,1.6,2.8
					s1.2,1.9,1.2,3c0,0.5,0,1.1-0.2,1.7c-0.1,0.6-0.4,1.1-0.8,1.6L104.4,274.7z"/>
			</g>
			<g>
				<path class="st0" d="M93.1,271.4c0,0,0-7.7-1.7-10.9"/>
				<path class="st4" d="M92.9,271.4c-0.8-0.9-1.2-1.8-1.4-2.7c-0.3-0.9,0-1.8,0.1-2.7s0-1.8,0-2.7c0-0.9-0.1-1.8-0.3-2.7l0.3-0.1
					c0.7,0.7,1.1,1.6,1.5,2.5c0.4,0.9,0.7,1.8,0.9,2.8c0.2,0.9,0.7,1.9,0.6,2.8c-0.1,0.5-0.2,1-0.4,1.4c-0.2,0.5-0.4,1-0.9,1.4
					L92.9,271.4z"/>
			</g>
		</g>
		<path class="st1" d="M110.9,263.1c0,0,17.8,5.2,23.6-0.6"/>
		<g id="leg1_1_">
			<path class="st0" d="M144,232.4c0,0,11.7,9.2,13,14.4c0,0,9.1-8,18.7,1.8c9.6,9.8,1.1,11.8-6.9,16.6s-30.1,9-33.1,4.1s-6-32-6-32
				s-2.7-7.6,1.1-10.1C134.5,224.7,140.2,228.1,144,232.4z"/>
			<path class="st1" d="M130,238.9l4.1,26c0,0-0.4,5.9,5,6.6s24.8-3.9,33.2-8.7c8.4-4.8,8.5-5.8,6.5-9.9s-11.9-18.2-27.2-1.1"/>
			<path class="st1" d="M145.2,233.5c0,0,9.4,7.2,10.9,13.9"/>
			<g>
				<path class="st0" d="M172.4,262.7c0,0-2-6.5-7.8-9.6"/>
				<path class="st4" d="M172.2,262.8c-1.1-0.7-1.8-1.4-2.5-2.2c-0.7-0.7-0.9-1.8-1.4-2.6c-0.5-0.9-1.1-1.7-1.7-2.4
					c-0.6-0.8-1.4-1.5-2.2-2.2l0.1-0.3c1,0.3,2.1,0.8,3,1.3c0.5,0.3,0.9,0.6,1.4,1c0.4,0.4,0.9,0.7,1.2,1.1c0.8,0.8,1.8,1.5,2.1,2.6
					c0.2,0.5,0.3,1.1,0.4,1.7c0,0.6,0,1.2-0.2,1.9L172.2,262.8z"/>
			</g>
		</g>
	</g>
</g>
</svg>
