<?xml version="1.0" encoding="UTF-8"?>
<!DOCTYPE svg PUBLIC "-//W3C//DTD SVG 1.1//EN" "http://www.w3.org/Graphics/SVG/1.1/DTD/svg11.dtd">
<!-- Creator: CorelDRAW X8 -->
<svg xmlns="http://www.w3.org/2000/svg" xml:space="preserve" width="14.866mm" height="12.9781mm" version="1.1" style="shape-rendering:geometricPrecision; text-rendering:geometricPrecision; image-rendering:optimizeQuality; fill-rule:evenodd; clip-rule:evenodd"
viewBox="0 0 94 82"
 xmlns:xlink="http://www.w3.org/1999/xlink">
 <defs>
  <style type="text/css">
   <![CDATA[
    .fil0 {fill:#3599F9;fill-rule:nonzero}
   ]]>
  </style>
 </defs>
 <g id="Слой_x0020_1">
  <metadata id="CorelCorpID_0Corel-Layer"/>
  <path class="fil0" d="M9 0c3,0 5,1 7,3l0 0c1,1 2,4 2,6 0,3 -1,5 -2,7 -2,1 -3,1 -5,2 0,0 0,0 0,0l0 23 35 0 0 -23c0,0 0,0 0,0 -2,-1 -3,-1 -4,-2 -2,-2 -3,-4 -3,-7 0,-2 1,-5 3,-6l0 0c1,-2 4,-3 6,-3 3,0 5,1 7,3l0 0c1,1 2,4 2,6 0,3 -1,5 -2,7 -1,1 -3,1 -4,2 0,0 0,0 0,0l0 23 32 0 0 -23c-1,0 -3,-1 -4,-2 -2,-2 -3,-4 -3,-7 0,-2 1,-5 3,-6l0 0c2,-2 4,-3 6,-3 3,0 5,1 7,3l0 0c2,1 2,4 2,6 0,3 -1,5 -2,7 -1,1 -3,1 -4,2l0 25c0,1 -1,2 -2,2l-35 0 0 20c1,0 3,1 4,2l0 0c1,2 2,4 2,6 0,3 -1,5 -2,7 -2,1 -4,2 -7,2 -2,0 -5,-1 -6,-2 -2,-2 -3,-4 -3,-7 0,-2 1,-4 3,-6l0 0c1,-1 2,-2 4,-2l0 -20 -35 0 0 20c2,0 3,1 5,2l0 0c1,2 2,4 2,6 0,3 -1,5 -2,7 -2,1 -4,2 -7,2 -2,0 -5,-1 -6,-2 -2,-2 -3,-4 -3,-7 0,-2 1,-4 3,-6l0 0c1,-1 2,-2 4,-2l0 -47c0,0 0,0 0,0 -2,-1 -3,-1 -4,-2 -2,-2 -3,-4 -3,-7 0,-2 1,-5 3,-6l0 0c1,-2 4,-3 6,-3zm3 6c-1,-1 -2,-1 -3,-1 -1,0 -2,0 -3,1l0 0c-1,1 -1,2 -1,3 0,1 0,2 1,3l0 0c1,1 2,1 3,1 1,0 2,0 3,-1 1,-1 1,-2 1,-3 0,-1 0,-2 -1,-3l0 0zm0 64c-1,0 -2,-1 -3,-1 -1,0 -2,1 -3,1l0 0c-1,1 -1,2 -1,3 0,2 0,3 1,3l0 0c1,1 2,2 3,2 1,0 2,-1 3,-2 1,0 1,-1 1,-3 0,-1 0,-2 -1,-3l0 0zm39 -64c-1,-1 -2,-1 -3,-1 -1,0 -2,0 -3,1l0 0c-1,1 -1,2 -1,3 0,1 0,2 1,3l0 0c1,1 2,1 3,1 1,0 2,0 3,-1 1,-1 2,-2 2,-3 0,-1 -1,-2 -2,-3l0 0zm0 64c-1,0 -2,-1 -3,-1 -1,0 -2,1 -3,1l0 0c-1,1 -1,2 -1,3 0,2 0,3 1,3l0 0c1,1 2,2 3,2 1,0 2,-1 3,-2 1,0 2,-1 2,-3 0,-1 -1,-2 -2,-3l0 0zm37 -64c0,-1 -1,-1 -3,-1 -1,0 -2,0 -3,1l0 0c0,1 -1,2 -1,3 0,1 1,2 1,3l0 0c1,1 2,1 3,1 2,0 3,0 3,-1 1,-1 2,-2 2,-3 0,-1 -1,-2 -1,-3l-1 0z"/>
 </g>
</svg>
